<svg xmlns="http://www.w3.org/2000/svg" xmlns:xlink="http://www.w3.org/1999/xlink" width="1080" zoomAndPan="magnify" viewBox="0 0 810 809.999993" height="1080" preserveAspectRatio="xMidYMid meet" version="1.0"><defs><clipPath id="7a6d6c5bb8"><path d="M 308 48.09375 L 504 48.09375 L 504 175 L 308 175 Z M 308 48.09375 " clip-rule="nonzero"/></clipPath><clipPath id="76b3e44d1a"><path d="M 10.628906 694 L 801.128906 694 L 801.128906 744.625 L 10.628906 744.625 Z M 10.628906 694 " clip-rule="nonzero"/></clipPath></defs><rect x="-81" width="972" fill="#ffffff" y="-80.999999" height="971.999992" fill-opacity="1"/><rect x="-81" width="972" fill="#ffffff" y="-80.999999" height="971.999992" fill-opacity="1"/><rect x="-81" width="972" fill="#022033" y="-80.999999" height="971.999992" fill-opacity="1"/><g clip-path="url(#7a6d6c5bb8)"><path fill="#f4f8f3" d="M 503.308594 145.773438 L 503.308594 174.949219 C 500.824219 174.417969 498.246094 174.140625 495.609375 174.140625 L 493.125 174.140625 L 493.125 166.441406 C 493.125 164.300781 492.339844 162.238281 490.914062 160.644531 L 458.890625 124.894531 C 457.300781 123.121094 455.046875 122.070312 452.65625 122.007812 C 450.273438 121.945312 447.964844 122.855469 446.277344 124.546875 C 411.109375 159.722656 328.625 157.78125 327.578125 157.757812 C 325.226562 157.683594 322.953125 158.570312 321.265625 160.207031 C 319.582031 161.84375 318.628906 164.085938 318.628906 166.441406 L 318.628906 174.140625 L 316.144531 174.140625 C 313.507812 174.140625 310.925781 174.417969 308.445312 174.949219 L 308.445312 146.597656 C 308.445312 120.324219 318.792969 95.550781 337.578125 76.820312 C 356.027344 58.4375 380.277344 48.328125 405.890625 48.328125 C 406.003906 48.328125 406.125 48.328125 406.238281 48.328125 C 459.757812 48.519531 503.308594 92.230469 503.308594 145.773438 " fill-opacity="1" fill-rule="nonzero"/></g><path fill="#407bbf" d="M 318.628906 191.515625 L 318.628906 230.742188 L 316.144531 230.742188 C 305.335938 230.742188 296.535156 221.941406 296.535156 211.128906 C 296.535156 204.199219 300.144531 198.097656 305.585938 194.613281 C 308.636719 192.648438 312.257812 191.515625 316.144531 191.515625 L 318.628906 191.515625 " fill-opacity="1" fill-rule="nonzero"/><path fill="#407bbf" d="M 506.566406 194.875 C 511.78125 198.394531 515.21875 204.371094 515.21875 211.128906 C 515.21875 221.941406 506.421875 230.742188 495.609375 230.742188 L 493.125 230.742188 L 493.125 191.515625 L 495.609375 191.515625 C 499.664062 191.515625 503.4375 192.753906 506.566406 194.875 " fill-opacity="1" fill-rule="nonzero"/><path fill="#407bbf" d="M 475.753906 182.828125 L 475.753906 237.570312 C 475.753906 261.199219 463.964844 282.128906 445.964844 294.78125 C 434.609375 302.765625 420.78125 307.457031 405.878906 307.457031 C 390.976562 307.457031 377.140625 302.765625 365.789062 294.777344 C 347.785156 282.125 336.003906 261.199219 336.003906 237.570312 L 336.003906 175.128906 C 358.378906 174.707031 416.90625 170.820312 451.730469 142.9375 L 475.753906 169.765625 L 475.753906 182.828125 " fill-opacity="1" fill-rule="nonzero"/><path fill="#f4f8f3" d="M 442.246094 316.886719 L 442.246094 339.066406 L 405.878906 384.15625 L 369.515625 339.066406 L 369.515625 316.886719 C 380.589844 321.984375 392.910156 324.832031 405.878906 324.832031 C 418.851562 324.832031 431.167969 321.984375 442.246094 316.886719 " fill-opacity="1" fill-rule="nonzero"/><path fill="#f4f8f3" d="M 357.671875 352.0625 L 390.339844 392.5625 L 242.273438 392.5625 C 249.578125 387.117188 257.785156 382.941406 266.632812 380.203125 L 357.671875 352.0625 " fill-opacity="1" fill-rule="nonzero"/><path fill="#f4f8f3" d="M 569.484375 392.5625 L 421.417969 392.5625 L 454.085938 352.0625 L 545.121094 380.203125 C 553.96875 382.941406 562.183594 387.117188 569.484375 392.5625 " fill-opacity="1" fill-rule="nonzero"/><path fill="#407bbf" d="M 355.089844 505.515625 C 358.882812 502.589844 359.589844 497.128906 356.65625 493.328125 C 353.730469 489.535156 348.273438 488.828125 344.476562 491.761719 L 286.6875 536.34375 C 284.558594 537.988281 283.308594 540.527344 283.308594 543.222656 C 283.308594 545.914062 284.558594 548.457031 286.6875 550.101562 L 344.476562 594.683594 C 346.054688 595.902344 347.921875 596.492188 349.773438 596.492188 C 352.375 596.492188 354.945312 595.332031 356.65625 593.109375 C 359.589844 589.308594 358.882812 583.851562 355.089844 580.921875 L 306.214844 543.222656 Z M 435.3125 466.917969 C 436.554688 462.277344 433.808594 457.519531 429.171875 456.273438 C 424.539062 455.035156 419.773438 457.785156 418.535156 462.421875 L 376.441406 619.523438 C 375.203125 624.160156 377.953125 628.921875 382.585938 630.164062 C 383.335938 630.363281 384.097656 630.460938 384.839844 630.460938 C 388.675781 630.460938 392.1875 627.898438 393.222656 624.023438 Z M 528.449219 543.222656 C 528.449219 540.527344 527.203125 537.988281 525.070312 536.34375 L 467.285156 491.761719 C 463.484375 488.828125 458.027344 489.535156 455.097656 493.328125 C 452.167969 497.128906 452.867188 502.589844 456.671875 505.515625 L 505.539062 543.222656 L 456.671875 580.921875 C 452.867188 583.851562 452.167969 589.308594 455.097656 593.109375 C 456.8125 595.332031 459.378906 596.492188 461.980469 596.492188 C 463.835938 596.492188 465.703125 595.902344 467.285156 594.683594 L 525.070312 550.101562 C 527.203125 548.457031 528.449219 545.914062 528.449219 543.222656 Z M 641.273438 412.589844 C 642.859375 414.300781 643.636719 416.519531 643.460938 418.84375 L 624.210938 676.5 L 187.546875 676.5 L 168.292969 418.84375 C 168.121094 416.519531 168.898438 414.300781 170.480469 412.589844 C 172.066406 410.878906 174.222656 409.9375 176.558594 409.9375 L 635.203125 409.9375 C 637.527344 409.9375 639.6875 410.878906 641.273438 412.589844 " fill-opacity="1" fill-rule="nonzero"/><g clip-path="url(#76b3e44d1a)"><path fill="#f4f8f3" d="M 801.128906 743.273438 L 801.128906 744.625 L 10.628906 744.625 L 10.628906 743.273438 C 10.628906 716.144531 32.691406 694.078125 59.820312 694.078125 L 751.941406 694.078125 C 779.066406 694.078125 801.128906 716.144531 801.128906 743.273438 " fill-opacity="1" fill-rule="nonzero"/></g></svg>